<svg width="40" height="40" viewBox="0 0 40 40" fill="none" xmlns="http://www.w3.org/2000/svg">
<path opacity="0.4" d="M20 30C22.6522 30 25.1957 28.9464 27.0711 27.0711C28.9464 25.1957 30 22.6522 30 20C30 17.3478 28.9464 14.8043 27.0711 12.9289C25.1957 11.0536 22.6522 10 20 10C17.3478 10 14.8043 11.0536 12.9289 12.9289C11.0536 14.8043 10 17.3478 10 20C10 22.6522 11.0536 25.1957 12.9289 27.0711C14.8043 28.9464 17.3478 30 20 30ZM16.6328 16.457C16.9414 15.5859 17.7695 15 18.6953 15H20.9727C22.3359 15 23.4375 16.1055 23.4375 17.4648C23.4375 18.3477 22.9648 19.1641 22.1992 19.6055L20.9375 20.3281C20.9297 20.8359 20.5117 21.25 20 21.25C19.4805 21.25 19.0625 20.832 19.0625 20.3125V19.7852C19.0625 19.4492 19.2422 19.1406 19.5352 18.9727L21.2656 17.9805C21.4492 17.875 21.5625 17.6797 21.5625 17.4688C21.5625 17.1406 21.2969 16.8789 20.9727 16.8789H18.6953C18.5625 16.8789 18.4453 16.9609 18.4023 17.0859L18.3867 17.1328C18.2148 17.6211 17.6758 17.875 17.1914 17.7031C16.707 17.5312 16.4492 16.9922 16.6211 16.5078L16.6367 16.4609L16.6328 16.457ZM18.75 23.75C18.75 23.4185 18.8817 23.1005 19.1161 22.8661C19.3505 22.6317 19.6685 22.5 20 22.5C20.3315 22.5 20.6495 22.6317 20.8839 22.8661C21.1183 23.1005 21.25 23.4185 21.25 23.75C21.25 24.0815 21.1183 24.3995 20.8839 24.6339C20.6495 24.8683 20.3315 25 20 25C19.6685 25 19.3505 24.8683 19.1161 24.6339C18.8817 24.3995 18.75 24.0815 18.75 23.75Z" fill="#6682A9"/>
<path d="M18.6953 15C17.7695 15 16.9453 15.582 16.6328 16.457L16.6172 16.5039C16.4453 16.9922 16.6992 17.5273 17.1875 17.6992C17.6758 17.8711 18.211 17.6172 18.3828 17.1289L18.3985 17.082C18.4414 16.957 18.5625 16.875 18.6914 16.875H20.9688C21.2969 16.875 21.5586 17.1406 21.5586 17.4648C21.5586 17.6758 21.4453 17.8711 21.2617 17.9766L19.5313 18.9688C19.2383 19.1367 19.0586 19.4453 19.0586 19.7812V20.3125C19.0586 20.832 19.4766 21.25 19.9961 21.25C20.5078 21.25 20.9258 20.8398 20.9336 20.3281L22.1953 19.6055C22.961 19.1641 23.4336 18.3477 23.4336 17.4648C23.4336 16.1016 22.3281 15 20.9688 15H18.6953ZM20 25C20.3315 25 20.6495 24.8683 20.8839 24.6339C21.1183 24.3995 21.25 24.0815 21.25 23.75C21.25 23.4185 21.1183 23.1005 20.8839 22.8661C20.6495 22.6317 20.3315 22.5 20 22.5C19.6685 22.5 19.3506 22.6317 19.1161 22.8661C18.8817 23.1005 18.75 23.4185 18.75 23.75C18.75 24.0815 18.8817 24.3995 19.1161 24.6339C19.3506 24.8683 19.6685 25 20 25Z" fill="#6682A9"/>
</svg>
