<svg width="139" height="26" viewBox="0 0 139 26" fill="none" xmlns="http://www.w3.org/2000/svg">
<g clip-path="url(#clip0_1_162)">
<g clip-path="url(#clip1_1_162)">
<g clip-path="url(#clip2_1_162)">
<path d="M94.5236 13.2595C94.5236 14.1974 94.689 15.0711 95.0287 15.8898C95.3686 16.7084 95.837 17.4165 96.4342 18.0237C97.022 18.6306 97.7292 19.1088 98.5466 19.4583C99.3549 19.8078 100.228 19.9826 101.164 19.9826C102.111 19.9826 102.965 19.8078 103.718 19.449C104.462 19.0905 105.105 18.603 105.619 17.9867C106.143 17.3704 106.547 16.6531 106.832 15.8254C107.116 14.9977 107.254 14.1146 107.254 13.1766V2.98602C107.254 2.56285 107.337 2.16735 107.502 1.80881C107.667 1.45002 107.897 1.13723 108.182 0.870721C108.467 0.60395 108.797 0.392498 109.165 0.236106C109.532 0.0797146 109.918 0.00604248 110.331 0.00604248C110.754 0.00604248 111.139 0.0797146 111.488 0.236106C111.838 0.392498 112.15 0.60395 112.416 0.870721C112.683 1.13723 112.894 1.45002 113.041 1.80881C113.188 2.16735 113.261 2.56285 113.261 2.98602V13.1122C113.261 14.878 112.967 16.5427 112.37 18.1064C111.773 19.6698 110.937 21.031 109.872 22.1992C108.806 23.3671 107.53 24.2961 106.042 24.9768C104.554 25.6574 102.928 25.9976 101.164 25.9976C99.401 25.9976 97.7566 25.6574 96.223 24.9861C94.689 24.3145 93.3479 23.4041 92.209 22.2452C91.0701 21.0864 90.17 19.7344 89.5085 18.1891C88.8472 16.6441 88.5166 14.9977 88.5166 13.2502V2.98602C88.5166 2.56285 88.5993 2.16735 88.7555 1.80881C88.9116 1.45002 89.1228 1.13723 89.389 0.870721C89.6555 0.60395 89.9771 0.392498 90.3444 0.236106C90.7118 0.0797146 91.0975 0.00604248 91.5108 0.00604248C91.9151 0.00604248 92.3008 0.0797146 92.6684 0.236106C93.0357 0.392498 93.357 0.60395 93.6419 0.870721C93.9174 1.13723 94.1286 1.45002 94.2847 1.80881C94.4409 2.16735 94.5236 2.56285 94.5236 2.98602V13.2595Z" fill="#011C47"/>
<path fill-rule="evenodd" clip-rule="evenodd" d="M85.0825 19.9655C86.7506 19.9655 88.1026 21.3177 88.1026 22.9856C88.1026 24.6536 86.7506 26.0059 85.0825 26.0059C83.4147 26.0059 82.0625 24.6536 82.0625 22.9856C82.0625 21.3177 83.4147 19.9655 85.0825 19.9655Z" fill="#6682A9"/>
<path d="M120.68 0.0135498H134.219C134.715 0.0194953 135.102 0.0980789 135.556 0.287558C136.656 0.77638 137.324 1.77108 137.324 2.87927C137.322 3.44615 137.138 4.00063 136.791 4.46929L121.811 24.7565C120.852 26.0555 118.911 26.397 117.498 25.515C116.085 24.633 115.713 22.8483 116.673 21.5493L128.051 6.13919H120.838C118.971 6.13919 117.443 4.76579 117.443 3.0871C117.443 2.42741 117.679 1.81503 118.079 1.31432C118.634 0.532874 119.594 0.0135498 120.68 0.0135498ZM128.987 19.8924H135.676C137.384 19.8924 138.781 21.266 138.781 22.9447C138.781 24.6234 137.384 25.9971 135.676 25.9971H128.987C127.279 25.9971 125.882 24.6234 125.882 22.9447C125.882 21.266 127.279 19.8924 128.987 19.8924Z" fill="#011C47"/>
<path d="M79.1301 23.0494C79.1301 23.4715 79.0474 23.857 78.8915 24.215C78.7356 24.5727 78.534 24.8847 78.2773 25.151C78.0116 25.4173 77.7089 25.6282 77.3514 25.775C76.9846 25.9221 76.6087 25.9955 76.2052 25.9955C75.7926 25.9955 75.4077 25.9221 75.0226 25.775C74.6467 25.6282 74.3256 25.4263 74.0416 25.1603C73.7665 24.8941 73.5465 24.582 73.3814 24.224C73.2164 23.8663 73.134 23.4715 73.134 23.0494V12.8253C73.134 12.6784 73.1523 12.5683 73.1888 12.4949C73.1523 11.5956 72.9688 10.7511 72.6387 9.96187C72.3088 9.18172 71.8596 8.49334 71.2911 7.90603C70.7227 7.31872 70.0625 6.85058 69.3015 6.51091C68.5404 6.17125 67.697 6.00607 66.7803 6.00607C65.8451 6.00607 64.9832 6.17125 64.1948 6.51091C63.4061 6.85058 62.7369 7.32777 62.1778 7.93343C61.6184 8.53935 61.1784 9.24583 60.8573 10.0627C60.5365 10.8795 60.3716 11.7515 60.3716 12.6875V23.0494C60.3716 23.4715 60.2982 23.8663 60.1514 24.224C60.0048 24.582 59.7939 24.8941 59.5281 25.1603C59.2621 25.4263 58.9504 25.6282 58.6019 25.775C58.2537 25.9221 57.8686 25.9955 57.4467 25.9955C57.0341 25.9955 56.6492 25.9221 56.2824 25.775C55.9156 25.6282 55.5858 25.4173 55.3014 25.151C55.0171 24.8847 54.7881 24.5727 54.6229 24.215C54.4579 23.857 54.3755 23.4715 54.3755 23.0494V12.6691C54.3755 10.9072 54.6963 9.25514 55.3288 7.7225C55.9616 6.1896 56.8325 4.8498 57.942 3.70258C59.0512 2.55537 60.3623 1.65579 61.8751 0.995067C63.3971 0.334344 65.0199 0.00398254 66.771 0.00398254C68.5314 0.00398254 70.1633 0.334344 71.667 0.995067C73.1704 1.65579 74.4725 2.55537 75.5819 3.70258C76.6821 4.8498 77.544 6.1896 78.1765 7.7225C78.8091 9.25514 79.1301 10.9072 79.1301 12.6691V23.0494Z" fill="#011C47"/>
<path d="M4.79544 -0.00584412H18.4424C18.9426 0.000101355 19.3326 0.078685 19.7899 0.268165C20.8981 0.756469 21.572 1.7504 21.572 2.85806C21.5702 3.42418 21.3849 3.97866 21.0349 4.4468L5.93542 24.7203C4.96864 26.0185 3.01206 26.3597 1.58799 25.4783C0.163664 24.597 -0.210642 22.8137 0.756402 21.5155L12.2141 6.13117H4.89626C3.00741 6.13117 1.46184 4.75338 1.46184 3.06952C1.46184 2.0606 2.0171 1.16179 2.86834 0.603179C3.40033 0.222152 4.0701 -0.00584412 4.79544 -0.00584412ZM13.079 19.8145H19.8447C21.5723 19.8145 22.9857 21.2029 22.9857 22.9C22.9857 24.597 21.5723 25.9857 19.8447 25.9857H13.079C11.3515 25.9857 9.93828 24.597 9.93828 22.9C9.93828 21.2029 11.3515 19.8145 13.079 19.8145Z" fill="#011C47"/>
<path fill-rule="evenodd" clip-rule="evenodd" d="M37.4094 0.0099302C37.7136 -0.00325323 39.6301 0.00191674 40.5393 0.254212C41.868 0.516329 42.897 1.66846 42.9591 3.09408C43.0317 4.76424 41.7496 6.17642 40.0952 6.24854C39.9719 6.25397 39.8501 6.25164 39.7299 6.24233C39.7304 6.26198 37.9246 6.07121 37.6738 6.08232C33.8568 6.24854 30.8973 9.47952 31.0635 13.2988C31.23 17.1179 34.4591 20.079 38.2759 19.9128C42.0928 19.7463 45.0524 16.5153 44.8859 12.696C44.8746 12.4308 44.6135 10.8506 44.0701 9.70337C43.8923 9.2815 43.7134 8.82758 43.6824 8.3522C43.5311 6.02287 45.3639 5.05272 46.5587 5.03851C47.7537 5.02429 48.6083 5.63047 49.184 6.42096C50.8024 8.97958 50.9389 12.141 50.9547 12.4316C51.3453 19.6799 45.709 25.6724 38.5403 25.9849C31.3719 26.2974 25.3072 20.7361 24.995 13.5633C24.6827 6.39046 30.2407 0.322455 37.4094 0.0099302Z" fill="#011C47"/>
</g>
</g>
</g>
<defs>
<clipPath id="clip0_1_162">
<rect width="139" height="26" fill="white"/>
</clipPath>
<clipPath id="clip1_1_162">
<rect width="139" height="26" fill="white"/>
</clipPath>
<clipPath id="clip2_1_162">
<rect width="139" height="26.0117" fill="white" transform="translate(0 -0.00584412)"/>
</clipPath>
</defs>
</svg>
