<svg width="18" height="18" viewBox="0 0 18 18" fill="none" xmlns="http://www.w3.org/2000/svg">
<path opacity="0.4" d="M17.2847 14.0923L16.9941 15.1587C14.54 14.8613 12.2466 14.0342 10.2334 12.7969L10.9341 11.9424C12.8276 13.084 14.981 13.8359 17.2847 14.0923ZM3.40771 0.215332C3.66406 2.51904 4.41602 4.67236 5.55762 6.56592L4.70313 7.2666C3.46582 5.25342 2.63867 2.95996 2.33789 0.505859L3.40771 0.215332Z" fill="#6682A9"/>
<path d="M2.33789 0.505859L1.00488 0.868164C0.413574 1.03223 0 1.57227 0 2.1875C0 10.6436 6.85645 17.5 15.3125 17.5C15.9277 17.5 16.4678 17.0864 16.6318 16.4917L16.9941 15.1587C9.33789 14.2324 3.26758 8.16211 2.33789 0.505859ZM17.2847 14.0923L17.4521 13.4839C17.6333 12.8208 17.2949 12.127 16.6592 11.8638L13.3779 10.4966C12.8208 10.2642 12.1748 10.4248 11.7954 10.8931L10.9375 11.9424C12.8311 13.084 14.9844 13.8359 17.2881 14.0923H17.2847ZM5.55762 6.56592L6.60693 5.70801C7.0752 5.3252 7.23584 4.68262 7.00342 4.12549L5.63623 0.844238C5.37305 0.208496 4.6792 -0.129883 4.01611 0.0512696L3.40771 0.215332C3.66406 2.51904 4.41602 4.67236 5.55762 6.56592Z" fill="#6682A9"/>
</svg>
