<svg width="22" height="14" viewBox="0 0 22 14" fill="none" xmlns="http://www.w3.org/2000/svg">
<path opacity="0.4" d="M17.5041 9.84375V2.1875H17.4528L15.0255 0.570801C14.4682 0.198242 13.8152 0 13.1452 0C12.4375 0 11.7469 0.222168 11.1725 0.632324L7.80165 3.03857C7.0632 3.56494 6.89226 4.59033 7.41875 5.32861C7.94524 6.06689 8.97086 6.23779 9.70931 5.71143L11.6648 4.31689L16.9707 9.18066C17.1759 9.36865 17.3229 9.59766 17.4083 9.84375H17.5041ZM18.5981 9.84375C18.5981 10.4487 19.0869 10.9375 19.6921 10.9375H20.7861C21.3912 10.9375 21.8801 10.4487 21.8801 9.84375V2.73438C21.8801 2.43359 21.6339 2.1875 21.3331 2.1875H18.5981V9.84375ZM20.2391 8.75C20.3841 8.75 20.5233 8.80762 20.6258 8.91018C20.7284 9.01273 20.7861 9.15183 20.7861 9.29688C20.7861 9.44192 20.7284 9.58102 20.6258 9.68357C20.5233 9.78613 20.3841 9.84375 20.2391 9.84375C20.094 9.84375 19.9549 9.78613 19.8523 9.68357C19.7497 9.58102 19.6921 9.44192 19.6921 9.29688C19.6921 9.15183 19.7497 9.01273 19.8523 8.91018C19.9549 8.80762 20.094 8.75 20.2391 8.75Z" fill="#5D78FF"/>
<path d="M5.34009 9.84375H4.376V2.1875L6.8375 0.546875C7.37082 0.191406 7.99987 0 8.6426 0C9.41866 0 10.1708 0.276856 10.7588 0.782715L10.8511 0.861328L7.79817 3.04199C7.05972 3.56836 6.88878 4.59375 7.41527 5.33203C7.94175 6.07031 8.96738 6.24121 9.70583 5.71484L11.6614 4.32031L12.1092 4.73047L16.9707 9.18066C17.1587 9.35156 17.2989 9.56006 17.3843 9.77881C17.61 10.3462 17.5108 11.0161 17.0698 11.498C16.4579 12.1646 15.4186 12.2124 14.7519 11.5972L14.4852 11.3545C14.4545 11.6997 14.3143 12.0415 14.0613 12.3184C13.4494 12.9849 12.4101 13.0327 11.7434 12.4175L11.1622 11.8843C11.0973 12.1372 10.9708 12.3799 10.7827 12.5884C10.1708 13.2583 9.1349 13.3062 8.46482 12.6943L5.34009 9.84375ZM0 2.73438C0 2.43359 0.24615 2.1875 0.547 2.1875H3.282V9.84375C3.282 10.4487 2.79312 10.9375 2.188 10.9375H1.094C0.488881 10.9375 0 10.4487 0 9.84375V2.73438ZM2.188 9.29688C2.188 9.15183 2.13037 9.01273 2.02779 8.91018C1.9252 8.80762 1.78607 8.75 1.641 8.75C1.49593 8.75 1.35679 8.80762 1.25421 8.91018C1.15163 9.01273 1.094 9.15183 1.094 9.29688C1.094 9.44192 1.15163 9.58102 1.25421 9.68357C1.35679 9.78613 1.49593 9.84375 1.641 9.84375C1.78607 9.84375 1.9252 9.78613 2.02779 9.68357C2.13037 9.58102 2.188 9.44192 2.188 9.29688Z" fill="#5D78FF"/>
</svg>
